<svg xmlns="http://www.w3.org/2000/svg" viewBox="0 0 16 16" fill="currentColor">
  <path d="M3.468 1.948C5.303 3.325 7.276 6.118 8 7.616c.725-1.498 2.697-4.29 4.532-5.668C13.855.955 16 .186 16 2.632c0 .489-.28 4.105-.444 4.692-.572 2.04-2.653 2.561-4.504 2.246 3.236.55 4.06 2.37 2.282 4.19-3.375 3.456-4.85-.867-5.228-1.975-.07-.204-.103-.3-.106-.218-.003-.081-.037.014-.106.218-.377 1.108-1.853 5.431-5.228 1.975-1.778-1.82-.954-3.64 2.282-4.19-1.85.315-3.932-.205-4.504-2.246C.28 6.737 0 3.12 0 2.632 0 .186 2.145.955 3.468 1.948"/>
</svg>
